<svg width="847" height="313" viewBox="0 0 847 313" fill="none" xmlns="http://www.w3.org/2000/svg">
<path d="M262.531 236.563C250.92 236.563 240.426 233.958 231.047 228.748C221.818 223.538 214.449 216.244 208.942 206.865C203.583 197.338 200.903 186.174 200.903 173.372C200.903 160.57 203.657 149.48 209.165 140.102C214.822 130.723 222.413 123.504 231.941 118.442C241.468 113.232 251.962 110.627 263.424 110.627C275.184 110.627 285.753 113.232 295.132 118.442C304.659 123.504 312.176 130.723 317.684 140.102C323.192 149.48 325.946 160.57 325.946 173.372C325.946 186.174 323.117 197.338 317.461 206.865C311.804 216.244 304.138 223.538 294.462 228.748C284.786 233.958 274.142 236.563 262.531 236.563ZM262.531 215.574C269.081 215.574 275.259 214.011 281.064 210.885C287.019 207.759 291.857 203.069 295.578 196.817C299.3 190.565 301.161 182.75 301.161 173.372C301.161 163.994 299.3 156.253 295.578 150.15C292.006 143.898 287.317 139.283 281.511 136.306C275.854 133.18 269.677 131.617 262.978 131.617C256.428 131.617 250.325 133.18 244.668 136.306C239.011 139.283 234.397 143.898 230.824 150.15C227.4 156.253 225.688 163.994 225.688 173.372C225.688 182.75 227.326 190.565 230.601 196.817C234.025 203.069 238.49 207.759 243.998 210.885C249.655 214.011 255.833 215.574 262.531 215.574ZM331.242 235V112.19H355.357V137.869C357.292 132.659 360.344 128.044 364.512 124.025C368.68 119.857 373.444 116.582 378.803 114.2C384.311 111.818 389.967 110.627 395.773 110.627C405.151 110.627 413.413 112.711 420.558 116.879C427.703 120.899 433.211 126.779 437.082 134.519C440.952 142.26 442.887 151.638 442.887 162.654V235H418.995V168.459C418.995 156.997 416.092 147.991 410.287 141.441C404.481 134.891 396.815 131.617 387.288 131.617C381.185 131.617 375.677 133.328 370.764 136.752C366.001 140.027 362.205 144.642 359.376 150.596C356.697 156.402 355.357 163.175 355.357 170.916V235H331.242ZM523.821 236.563C513.847 236.563 504.916 234.032 497.026 228.971C489.137 223.761 483.48 216.765 480.056 207.982V221.379C480.056 225.399 478.791 228.673 476.26 231.204C473.73 233.735 470.38 235 466.212 235H455.718V69.7652H480.056V138.762C483.48 129.979 489.062 123.132 496.803 118.219C504.693 113.158 513.699 110.627 523.821 110.627C534.539 110.627 544.215 113.232 552.849 118.442C561.632 123.653 568.554 131.021 573.615 140.548C578.825 149.926 581.43 160.868 581.43 173.372C581.43 186.025 578.825 197.115 573.615 206.642C568.554 216.02 561.632 223.389 552.849 228.748C544.215 233.958 534.539 236.563 523.821 236.563ZM518.239 215.574C524.938 215.574 531.19 213.936 536.995 210.661C542.801 207.386 547.49 202.623 551.063 196.371C554.784 189.97 556.645 182.303 556.645 173.372C556.645 164.291 554.784 156.7 551.063 150.596C547.49 144.344 542.801 139.655 536.995 136.529C531.19 133.254 524.938 131.617 518.239 131.617C511.838 131.617 505.66 133.254 499.706 136.529C493.9 139.655 489.137 144.344 485.415 150.596C481.843 156.7 480.056 164.291 480.056 173.372C480.056 182.303 481.843 189.97 485.415 196.371C489.137 202.623 493.9 207.386 499.706 210.661C505.66 213.936 511.838 215.574 518.239 215.574ZM673.584 221.379V112.19H697.7V235H687.205C683.186 235 679.911 233.735 677.38 231.204C674.85 228.673 673.584 225.399 673.584 221.379ZM634.285 236.563C624.609 236.563 616.124 234.553 608.83 230.534C601.536 226.515 595.879 220.635 591.86 212.894C587.99 205.154 586.055 195.626 586.055 184.313V112.19H609.947V179.177C609.947 190.789 612.849 199.795 618.655 206.196C624.46 212.448 632.127 215.574 641.654 215.574C647.906 215.574 653.414 213.936 658.177 210.661C663.09 207.238 666.886 202.623 669.565 196.817C672.245 190.863 673.584 184.164 673.584 176.721L678.05 183.197C677.604 195.403 675.296 205.451 671.128 213.341C667.109 221.23 661.824 227.11 655.275 230.981C648.874 234.702 641.877 236.563 634.285 236.563ZM760.771 236.563C750.053 236.563 740.302 233.958 731.519 228.748C722.886 223.389 715.964 216.02 710.753 206.642C705.692 197.115 703.162 186.025 703.162 173.372C703.162 160.868 705.692 149.926 710.753 140.548C715.964 131.021 722.886 123.653 731.519 118.442C740.302 113.232 750.053 110.627 760.771 110.627C771.042 110.627 780.048 113.158 787.789 118.219C795.529 123.132 801.186 129.979 804.759 138.762V69.7652H829.097V235H818.379C814.36 235 811.085 233.735 808.555 231.204C806.024 228.673 804.759 225.399 804.759 221.379V207.982C801.186 216.765 795.529 223.761 787.789 228.971C780.048 234.032 771.042 236.563 760.771 236.563ZM766.353 215.574C773.051 215.574 779.304 213.936 785.109 210.661C790.915 207.386 795.604 202.623 799.176 196.371C802.898 189.97 804.759 182.303 804.759 173.372C804.759 164.291 802.898 156.7 799.176 150.596C795.604 144.344 790.915 139.655 785.109 136.529C779.304 133.254 773.051 131.617 766.353 131.617C759.803 131.617 753.551 133.254 747.596 136.529C741.791 139.655 737.102 144.344 733.529 150.596C729.956 156.7 728.17 164.291 728.17 173.372C728.17 182.303 729.956 189.97 733.529 196.371C737.102 202.623 741.791 207.386 747.596 210.661C753.551 213.936 759.803 215.574 766.353 215.574Z" fill="white"/>
<path d="M117.076 159.795L64.1173 115.17C101.521 125.64 136.32 148.458 165.042 174.02C157.735 93.7235 74.7524 58.1968 2.54955 70.4723C-16.7672 169.326 77.2122 230.993 165.114 234.242C160.991 209.98 147.172 193.877 132.63 175.753C128.796 170.987 121.778 163.766 117.076 159.795Z" fill="white"/>
</svg>
